<?xml version="1.0" encoding="UTF-8"?>
<svg id="Layer_3" data-name="Layer 3" xmlns="http://www.w3.org/2000/svg" viewBox="0 0 957.83 232.09">
  <defs>
    <style>
      .cls-1 {
        fill: #020202;
      }

      .cls-2 {
        fill: #808181;
      }

      .cls-3 {
        fill: #676767;
      }
    </style>
  </defs>
  <g id="Layer_1" data-name="Layer 1">
    <g>
      <g>
        <path class="cls-1" d="M164.45,226.94v-4.81c11.28-.55,19.24-2.49,23.89-5.81,4.65-3.32,6.97-10.06,6.97-20.24V30.52c0-9.95-2.35-16.59-7.05-19.91-4.7-3.32-12.64-5.25-23.81-5.81V0h92.74c24.77,0,44.21,4.76,58.31,14.27,14.1,9.51,21.15,22.67,21.15,39.48,0,13.94-4.76,25.69-14.27,35.25-9.51,9.57-22.73,15.79-39.65,18.66,21.79,2.43,38.9,8.9,51.34,19.41,12.44,10.51,18.66,23.5,18.66,38.99,0,18.8-7.16,33.65-21.48,44.54-14.32,10.89-33.93,16.34-58.81,16.34h-108ZM219.86,104.35h38.32c16.15,0,28.81-4.45,37.99-13.35,9.18-8.9,13.77-21.21,13.77-36.91,0-13.94-5.22-24.86-15.68-32.76-10.45-7.91-24.86-11.86-43.21-11.86h-31.19v94.89ZM250.06,217.49h18.41c17.47,0,31.35-4.67,41.64-14.02,10.29-9.34,15.43-21.82,15.43-37.41s-5.92-28.89-17.75-38.24c-11.84-9.34-28.26-14.02-49.27-14.02h-38.65v81.62c0,7.41,2.29,12.94,6.88,16.59,4.59,3.65,12.36,5.47,23.31,5.47Z"/>
        <path class="cls-1" d="M410.41,202.06c0,3.65.64,6.72,1.91,9.21,1.27,2.49,3.21,4.45,5.81,5.89,2.6,1.44,5.06,2.46,7.38,3.07,2.32.61,5.36,1.24,9.12,1.91v4.81h-70.01v-4.81c3.76-.55,6.8-1.16,9.12-1.82,2.32-.66,4.78-1.71,7.38-3.15,2.6-1.44,4.51-3.4,5.72-5.89,1.22-2.49,1.82-5.56,1.82-9.21V38.04c0-5.97-1.36-10.31-4.06-13.02-2.71-2.71-7.11-4.12-13.19-4.23l-9.29-.33v-4.81l43.63-12.28h4.65v198.7Z"/>
        <path class="cls-1" d="M591.84,214.66c-6.2-.22-10.71-1.62-13.53-4.22-2.82-2.61-4.23-6.95-4.23-13.03v-84.28c0-18.69-5.29-33.51-15.84-44.46-10.56-10.95-24.75-16.42-42.55-16.42-8.84,0-17.2,1.31-25.05,3.9-7.85,2.6-14.49,6.14-19.9,10.62-5.43,4.47-10.04,9.57-13.28,15.59-4.2,7.82-4.39,17.05-4.67,22.68l22.24-6.38c.02-2.08.33-3.51.35-3.78.44-6.2,1.97-11.72,4.56-16.6,2.6-4.86,6.54-8.81,11.86-11.86,5.3-3.04,11.33-4.56,18.08-4.56,13.28,0,23.68,4.55,31.2,13.61,7.52,9.08,11.28,21.63,11.28,37.66v10.78l-29.2,5.81c-26.21,4.88-44.82,11.7-55.83,20.5-11,8.79-16.5,21.32-16.5,37.57,0,13.17,4.09,23.83,12.29,32.01,8.18,8.2,18.8,12.29,31.84,12.29s24.05-4.01,34.34-12.03c10.29-8.01,17.97-18.99,23.06-32.93v44.96h4.81l43.45-12.29v-4.8l-8.78-.35ZM552.35,178.34c-4.99,11.17-11.7,20.14-20.15,26.87-8.46,6.75-17.4,10.13-26.81,10.13s-16.86-3.18-22.72-9.55c-5.87-6.36-8.79-14.46-8.79-24.31,0-11.5,3.98-20.53,11.94-27.12,7.96-6.58,20.73-11.58,38.32-15.01l28.21-5.8v44.79Z"/>
        <path class="cls-1" d="M957.83,222.13v4.81h-47.27c-.99-3.98-3.82-9.74-8.46-17.26l-49.93-77.46-25.22,23.38v46.46c0,3.65.63,6.72,1.9,9.2,1.27,2.48,3.21,4.45,5.81,5.9,2.6,1.43,5.07,2.45,7.39,3.07,2.31.6,5.36,1.24,9.12,1.9v4.81h-140.28v-4.81c3.65-.66,6.64-1.31,8.95-1.9,2.33-.61,4.75-1.64,7.3-3.07,2.55-1.45,4.45-3.41,5.73-5.9,1.27-2.49,1.9-5.55,1.9-9.2v-97.71c0-11.17-2.93-19.9-8.79-26.21-5.85-6.31-13.92-9.46-24.21-9.46-9.41,0-18.14,2.41-26.21,7.22-8.09,4.8-16.99,12.9-26.71,24.29v101.86c0,3.65.6,6.72,1.82,9.2,1.21,2.48,3.11,4.45,5.73,5.9,2.6,1.43,5.02,2.45,7.3,3.07,2.27.6,5.22,1.24,8.87,1.9v4.81h-69.68v-4.81c3.76-.66,6.8-1.31,9.12-1.9,2.31-.61,4.78-1.64,7.38-3.07,2.6-1.45,4.53-3.41,5.8-5.9,1.27-2.49,1.9-5.55,1.9-9.2v-115.13c0-5.98-1.38-10.32-4.14-13.03-2.77-2.71-7.3-4.23-13.61-4.56h-8.79v-4.81l43.47-12.27h4.81v40.15c10.18-13.72,20.04-23.83,29.61-30.36,9.56-6.53,20.15-9.79,31.78-9.79,14.6,0,25.96,4.37,34.09,13.1,8.12,8.73,12.19,21.24,12.19,37.49v99.21c0,3.65.6,6.72,1.82,9.2,1.21,2.48,3.12,4.45,5.71,5.9,2.61,1.43,5.07,2.48,7.39,3.15,1.87.53,4.61,1.04,7.57,1.5,1.46.23,2.96.21,4.42-.03,2.72-.45,5.01-.95,6.85-1.47,2.31-.66,4.78-1.72,7.38-3.15,2.6-1.45,4.5-3.41,5.73-5.9,1.21-2.49,1.82-5.55,1.82-9.2V38.04c0-5.96-1.37-10.3-4.07-13.03-2.71-2.71-7.11-4.11-13.18-4.22l-9.3-.33v-4.81l43.64-12.29h4.64v138.98l68.01-63.54c5.43-4.86,7.22-8.84,5.4-11.94-1.82-3.1-7.16-4.64-16-4.64v-4.81h59.88v4.81c-6.86,0-13.12,1.51-18.82,4.56-5.71,3.04-13.14,8.87-22.32,17.49l-35,32.85,55.74,87.75c3.87,5.76,8.35,9.99,13.45,12.7,5.08,2.71,11.94,4.23,20.56,4.56Z"/>
      </g>
      <g>
        <path class="cls-1" d="M152.41,82.76c-9.67,9.67-75,75.02-82.88,82.89-19.19-19.21-50.33-19.21-69.54,0,8.87-8.86,40.33-40.35,49.73-49.74,7.24,2.3,14.05,6.32,19.81,12.08l33.16-33.16c16.96,5.43,36.26,1.4,49.71-12.07Z"/>
        <g>
          <path class="cls-3" d="M69.54,127.98c-18.78-18.95-50.19-19.43-69.54,0L69.54,58.45c18.99,18.92,19.36,50.21,0,69.54Z"/>
          <path class="cls-2" d="M139.07,58.45c-17.33,17.33-52.27,52.27-69.54,69.54,19.36-19.32,18.99-50.61,0-69.54,19.19,19.21,50.34,19.21,69.54,0Z"/>
        </g>
      </g>
    </g>
  </g>
</svg>